{"title":"Phata.Poster.Nikla.hero.(2013).720P.X264.DVDRIP.MSUBS.AC3.5.1-Te","uid":9145100,"size":2228015129,"categoryP":"video","categoryS":"hd___movies","magnet":"?xt=urn:btih:4a5628da120d4a46245d31743ae6ca7de10f0ca6&amp;dn=Phata.Poster.Nikla.hero.%282013%29.720P.X264.DVDRIP.MSUBS.AC3.5.1-Te&amp;tr=udp%3A%2F%2Ftracker.openbittorrent.com%3A80&amp;tr=udp%3A%2F%2Fopen.demonii.com%3A1337&amp;tr=udp%3A%2F%2Ftracker.coppersurfer.tk%3A6969&amp;tr=udp%3A%2F%2Fexodus.desync.com%3A6969","seeders":1,"leechers":0,"uploader":"khalidsallam","files":3,"time":1383580266,"description":"Rip Information\n\nFormat                                   : Matroska\nFormat version                           : Version 2\nFile size                                : 2.06 GiB\nDuration                                 : 2h 21mn\nOverall bit rate                         : 2 088 Kbps\nEncoded date                             : UTC 2013-11-03 02:00:33\nWriting application                      : mkvmerge v6.2.0\n\nVideo\n\nFormat                                   : AVC\nFormat/Info                              : Advanced Video Codec\nFormat profile                           : &lt;a class=&quot;__cf_email__&quot; href=&quot;/cdn-cgi/l/email-protection&quot; data-cfemail=&quot;0c44656b644c403f223d&quot;&gt;[email&amp;#160;protected]&lt;/a&gt;&lt;script cf-hash='f9e31' type=&quot;text/javascript&quot;&gt;\n/* &lt;![CDATA[ */!function(){try{var t=&quot;currentScript&quot;in document?document.currentScript:function(){for(var t=document.getElementsByTagName(&quot;script&quot;),e=t.length;e--;)if(t[e].getAttribute(&quot;cf-hash&quot;))return t[e]}();if(t&amp;&amp;t.previousSibling){var e,r,n,i,c=t.previousSibling,a=c.getAttribute(&quot;data-cfemail&quot;);if(a){for(e=&quot;&quot;,r=parseInt(a.substr(0,2),16),n=2;a.length-n;n+=2)i=parseInt(a.substr(n,2),16)^r,e+=String.fromCharCode(i);e=document.createTextNode(e),c.parentNode.replaceChild(e,c)}}}catch(u){}}();/* ]]&gt; */&lt;/script&gt;\nFormat settings, CABAC                   : Yes\nFormat settings, ReFrames                : 4 frames\nCodec ID                                 : V_MPEG4/ISO/AVC\nDuration                                 : 2h 21mn\nBit rate                                 : 1 638 Kbps\nWidth                                    : 1 280 pixels\nHeight                                   : 544 pixels\nDisplay aspect ratio                     : 2.35:1\nFrame rate mode                          : Constant\nFrame rate                               : 29.970 fps\nColor space                              : YUV\nChroma subsampling                       : 4:2:0\nBit depth                                : 8 bits\nScan type                                : Progressive\nBits/(Pixel*Frame)                       : 0.078\nStream size                              : 1.58 GiB (77%)\nWriting library                          : x264 core 133 r2334\n\nAudio\nFormat                                   : AC-3\nFormat/Info                              : Audio Coding 3\nMode extension                           : CM (complete main)\nFormat settings, Endianness              : Big\nCodec ID                                 : A_AC3\nDuration                                 : 2h 21mn\nBit rate mode                            : Constant\nBit rate                                 : 448 Kbps\nChannel(s)                               : 6 channels\nChannel positions                        : Front: L C R, Side: L R, LFE\nSampling rate                            : 48.0 KHz\nBit depth                                : 16 bits\nCompression mode                         : Lossy\nStream size                              : 453 MiB (21%)","torrent":{"xt":"urn:btih:4a5628da120d4a46245d31743ae6ca7de10f0ca6","amp;dn":"Phata.Poster.Nikla.hero.%282013%29.720P.X264.DVDRIP.MSUBS.AC3.5.1-Te","amp;tr":["udp%3A%2F%2Ftracker.openbittorrent.com%3A80","udp%3A%2F%2Fopen.demonii.com%3A1337","udp%3A%2F%2Ftracker.coppersurfer.tk%3A6969","udp%3A%2F%2Fexodus.desync.com%3A6969"],"infoHash":"4a5628da120d4a46245d31743ae6ca7de10f0ca6","infoHashBuffer":{"type":"Buffer","data":[74,86,40,218,18,13,74,70,36,93,49,116,58,230,202,125,225,15,12,166]},"announce":[],"urlList":[]}}